<?xml version="1.0" ?><!-- Uploaded to: SVG Repo, www.svgrepo.com, Generator: SVG Repo Mixer Tools -->
<svg width="800px" height="800px" viewBox="0 0 28 28" fill="none" xmlns="http://www.w3.org/2000/svg"><path clip-rule="evenodd" d="M21 10C23.4844 10 25.5 7.98535 25.5 5.5C25.5 4.53711 25.1973 3.64453 24.6816 2.91309C24.6172 2.82031 24.5488 2.73047 24.4766 2.64258L24.3672 2.51465C24.2324 2.36328 24.0879 2.2207 23.9336 2.08887C23.1465 1.41016 22.1211 1 21 1C18.5156 1 16.5 3.01465 16.5 5.5C16.5 6.09766 16.6172 6.66895 16.8281 7.19141L10.5938 10.791C9.77148 9.70312 8.46875 9 7 9C4.51562 9 2.5 11.0146 2.5 13.5C2.5 15.9854 4.51562 18 7 18C8.04492 18 9.00781 17.6436 9.77148 17.0449L16.7344 21.0645C16.582 21.5156 16.5 21.998 16.5 22.5C16.5 24.9854 18.5156 27 21 27C23.4844 27 25.5 24.9854 25.5 22.5C25.5 20.0146 23.4844 18 21 18C19.7383 18 18.5977 18.5205 17.7793 19.3584L11.0469 15.4707C11.3379 14.876 11.5 14.207 11.5 13.5C11.5 13.2012 11.4707 12.9092 11.416 12.627L17.9805 8.83594C18.7793 9.55957 19.8379 10 21 10ZM21 8C22.3809 8 23.5 6.88086 23.5 5.5C23.5 4.11914 22.3809 3 21 3C20.0352 3 19.1973 3.54688 18.7812 4.34863C18.6016 4.69336 18.5 5.08496 18.5 5.5C18.5 6.88086 19.6191 8 21 8ZM7 11C7.83984 11 8.58203 11.4131 9.03516 12.0479C9.12891 12.1787 9.21094 12.3193 9.27734 12.4678C9.41992 12.7822 9.5 13.1318 9.5 13.5C9.5 14.8809 8.38086 16 7 16C5.61914 16 4.5 14.8809 4.5 13.5C4.5 12.1191 5.61914 11 7 11ZM23.5 22.5C23.5 23.8809 22.3809 25 21 25C19.6191 25 18.5 23.8809 18.5 22.5C18.5 21.1191 19.6191 20 21 20C22.3809 20 23.5 21.1191 23.5 22.5Z" fill="#000000" fill-rule="evenodd"/></svg>