<?xml version="1.0" ?><!-- Uploaded to: SVG Repo, www.svgrepo.com, Generator: SVG Repo Mixer Tools -->
<svg width="800px" height="800px" viewBox="0 0 28 28" fill="none" xmlns="http://www.w3.org/2000/svg"><path d="M4.70106 11.139L12.9281 19.7088V2C12.9281 1.44772 13.3758 1 13.9281 1C14.4804 1 14.9281 1.44772 14.9281 2V19.724L23.1806 11.1276C23.5631 10.7292 24.1832 10.7292 24.5657 11.1276L24.5949 11.158C24.9773 11.5564 24.9773 12.2024 24.5949 12.6008L14.6718 22.9373L14.6572 22.9528L14.6281 22.9831C14.6111 23.0009 14.5936 23.0178 14.5757 23.034C14.1909 23.3829 13.6069 23.3667 13.2407 22.9852L13.2115 22.9549C13.1929 22.9355 13.1753 22.9156 13.1585 22.8951L3.28685 12.6121C2.90438 12.2137 2.90438 11.5678 3.28685 11.1694L3.31601 11.139C3.69848 10.7406 4.31858 10.7406 4.70106 11.139Z" fill="#000000"/><path d="M4.01403 25C3.46174 25 3.01403 25.4477 3.01403 26C3.01403 26.5523 3.46174 27 4.01403 27H24.014C24.5663 27 25.014 26.5523 25.014 26C25.014 25.4477 24.5663 25 24.014 25H4.01403Z" fill="#000000"/></svg>