<?xml version="1.0" encoding="utf-8"?><!-- Uploaded to: SVG Repo, www.svgrepo.com, Generator: SVG Repo Mixer Tools -->
<svg version="1.1" id="designs" xmlns="http://www.w3.org/2000/svg" xmlns:xlink="http://www.w3.org/1999/xlink" 
	 width="800px" height="800px" viewBox="0 0 32 32" xml:space="preserve">
<style type="text/css">
	.sketchy_een{fill:#111918;}
</style>
<path class="sketchy_een" d="M29.969,8.608c-0.061-0.219-0.207-0.41-0.402-0.524c-0.052-0.031-0.109-0.05-0.166-0.069
	c-0.205-0.182-0.412-0.363-0.61-0.551c-0.225-0.215-0.439-0.439-0.664-0.652c-0.24-0.229-0.473-0.465-0.709-0.699
	c-0.236-0.234-0.487-0.455-0.739-0.676c-0.522-0.457-1.013-0.95-1.527-1.417c-0.554-0.502-1.088-1.027-1.637-1.533
	c-0.109-0.1-0.24-0.158-0.375-0.195c-0.008-0.008-0.01-0.019-0.018-0.028c-0.157-0.157-0.384-0.243-0.608-0.243
	c-0.213,0-0.425,0.077-0.573,0.243c-0.597,0.666-1.21,1.308-1.872,1.907c-0.605,0.548-1.222,1.086-1.836,1.622
	c-1.222,1.064-2.382,2.205-3.509,3.365c-1.076,1.107-2.193,2.171-3.306,3.239c-0.56,0.538-1.099,1.094-1.683,1.606
	c-0.276,0.242-0.558,0.483-0.833,0.725c-0.264,0.23-0.51,0.485-0.755,0.733c-0.355,0.363-0.715,0.723-1.092,1.06
	c-0.172,0.155-0.228,0.383-0.204,0.604c-0.057,0.184-0.062,0.385,0.011,0.559c0.019,0.23,0.04,0.459,0.047,0.688
	c0.006,0.224,0.017,0.454,0,0.679c-0.079,0.373-0.195,0.742-0.332,1.099c-0.159,0.34-0.356,0.661-0.543,0.986
	c-0.173,0.302-0.368,0.593-0.581,0.871c0.011-0.014,0.022-0.028,0.033-0.042c-0.104,0.144-0.172,0.287-0.172,0.481
	c0,0.138,0.049,0.267,0.117,0.385c-0.074,0.288-0.028,0.61,0.204,0.809c0.033,0.028,0.066,0.058,0.099,0.086
	c-0.263,0.316-0.527,0.63-0.786,0.949c-0.355,0.433-0.692,0.881-1.054,1.308c-0.209,0.244-0.418,0.483-0.613,0.737
	c-0.116,0.15-0.217,0.309-0.323,0.465c-0.205,0.294-0.39,0.603-0.595,0.898c-0.066,0.094-0.092,0.205-0.101,0.318
	C2.102,28.558,2,28.772,2,28.999c0,0.461,0.38,0.83,0.837,0.835c1.042,0.018,2.087,0.051,3.131,0.042
	c0.862-0.008,1.731-0.024,2.589,0.072c0.033,0.005,0.064,0.008,0.096,0.011c0.004,0.001,0.009,0.001,0.013,0.002
	c-0.003,0-0.007-0.001-0.01-0.001c0.067,0.006,0.13,0.003,0.193-0.003c0.289,0.062,0.602-0.001,0.824-0.223
	c0.465-0.465,0.929-0.93,1.387-1.402c0.062,0.085,0.123,0.172,0.216,0.226c0.255,0.15,0.551,0.115,0.786-0.025
	c0.143-0.034,0.279-0.092,0.386-0.203c0.203-0.211,0.416-0.41,0.625-0.611c0.166-0.159,0.328-0.322,0.505-0.469
	c0.445-0.329,0.914-0.619,1.415-0.854c0.243-0.092,0.487-0.167,0.742-0.217c0.034-0.002,0.067-0.004,0.101-0.004
	c0.341,0.075,0.667,0.19,0.989,0.322c0.191,0.079,0.459,0.018,0.63-0.083c0.11-0.064,0.195-0.159,0.264-0.265
	c0.011-0.01,0.027-0.014,0.038-0.025c0.018-0.018,0.025-0.043,0.041-0.062c0.032-0.024,0.075-0.037,0.099-0.067
	c0.072-0.087,0.138-0.177,0.205-0.265c0.403-0.522,0.764-1.074,1.161-1.601c0.254-0.323,0.517-0.637,0.761-0.967
	c0.248-0.335,0.495-0.67,0.747-1.003c0.512-0.672,0.995-1.367,1.497-2.049c0.52-0.709,1.038-1.423,1.553-2.138
	c0.489-0.678,0.95-1.373,1.407-2.071c0.709-1.082,1.47-2.128,2.23-3.172c0.4-0.55,0.778-1.117,1.166-1.677
	c0.41-0.595,0.837-1.178,1.255-1.767C30.01,9.1,30.026,8.818,29.969,8.608z M6.018,28.339c-0.607-0.031-1.212-0.07-1.817-0.107
	c0.123-0.177,0.245-0.354,0.374-0.526c0.189-0.233,0.395-0.45,0.587-0.679c0.231-0.276,0.445-0.566,0.67-0.847
	c0.37-0.466,0.765-0.91,1.163-1.354c0.025,0.022,0.05,0.043,0.074,0.065c0.461,0.412,0.94,0.804,1.413,1.204
	c0.393,0.33,0.778,0.668,1.164,1.007c-0.415,0.436-0.833,0.872-1.216,1.334c-0.351-0.024-0.701-0.048-1.052-0.057
	C6.924,28.369,6.469,28.363,6.018,28.339z M13.663,25.312c-0.213,0.114-0.414,0.254-0.617,0.388
	c-0.187,0.124-0.374,0.248-0.554,0.386c-0.301,0.231-0.579,0.491-0.862,0.746c-0.283-0.24-0.568-0.479-0.843-0.728
	c-0.416-0.376-0.841-0.743-1.263-1.113c-0.883-0.775-1.682-1.636-2.551-2.427c0.168-0.233,0.338-0.465,0.492-0.706
	c0.264-0.416,0.52-0.849,0.69-1.312c0.077-0.211,0.146-0.427,0.207-0.644c0.074-0.258,0.13-0.517,0.152-0.781
	c0.153,0.122,0.307,0.241,0.458,0.366c0.321,0.266,0.633,0.544,0.948,0.814c0.313,0.27,0.634,0.526,0.95,0.792
	c0.634,0.542,1.253,1.103,1.89,1.641c0.644,0.548,1.269,1.119,1.89,1.694c0.117,0.108,0.23,0.217,0.344,0.327
	C14.528,24.882,14.083,25.083,13.663,25.312z M26.909,10.7c-0.459,0.747-0.993,1.448-1.492,2.167
	c-0.487,0.702-0.967,1.405-1.442,2.114c-0.221,0.333-0.433,0.67-0.654,1.001c-0.24,0.359-0.491,0.709-0.743,1.06
	c-0.656,0.918-1.324,1.828-1.966,2.756c-0.315,0.455-0.63,0.904-0.962,1.348c-0.326,0.434-0.639,0.88-0.967,1.315
	c-0.159,0.2-0.322,0.398-0.477,0.6c-0.171,0.223-0.335,0.453-0.499,0.68c-0.164,0.226-0.325,0.453-0.488,0.678
	c-0.182-0.156-0.363-0.313-0.543-0.469c-0.299-0.26-0.603-0.512-0.902-0.772c-0.638-0.554-1.263-1.121-1.917-1.659
	c-1.279-1.05-2.54-2.126-3.82-3.178c-0.489-0.402-0.974-0.81-1.457-1.219c0.262-0.258,0.526-0.516,0.783-0.778
	c0.514-0.52,1.064-0.995,1.608-1.482c0.581-0.518,1.135-1.074,1.695-1.618c0.536-0.522,1.068-1.048,1.594-1.578
	c0.579-0.585,1.172-1.161,1.756-1.744c0.548-0.55,1.119-1.074,1.687-1.604c0.601-0.563,1.208-1.117,1.832-1.653
	c0.64-0.546,1.289-1.084,1.939-1.62c0.418-0.344,0.803-0.722,1.178-1.109c0.459,0.403,0.917,0.806,1.386,1.198
	c0.534,0.445,1.034,0.928,1.533,1.413c0.238,0.233,0.491,0.451,0.735,0.68c0.24,0.227,0.483,0.455,0.725,0.68
	c0.229,0.211,0.451,0.43,0.682,0.636c0.117,0.107,0.236,0.212,0.357,0.316C27.67,9.466,27.288,10.082,26.909,10.7z M22.423,15.018
	c-0.404,0.591-0.833,1.16-1.251,1.744c-0.205,0.286-0.408,0.575-0.619,0.859c-0.191,0.26-0.392,0.514-0.579,0.778
	c-0.38,0.534-0.723,1.094-1.096,1.633c-0.37,0.538-0.743,1.078-1.139,1.598c-0.112,0.148-0.221,0.262-0.41,0.315
	c-0.177,0.047-0.37,0.024-0.528-0.069c-0.154-0.091-0.268-0.24-0.315-0.412c-0.045-0.158-0.037-0.39,0.069-0.528
	c0.41-0.536,0.806-1.088,1.18-1.649c0.357-0.532,0.684-1.08,1.064-1.596c0.818-1.113,1.566-2.278,2.329-3.432
	c0.152-0.229,0.4-0.369,0.658-0.369c0.123,0,0.249,0.032,0.369,0.101C22.489,14.186,22.656,14.679,22.423,15.018z"/>
</svg>